<svg xmlns="http://www.w3.org/2000/svg" style="display:none">
  <symbol id="mic" viewBox="0 0 24 24"><path fill="currentColor" d="M12 15a4 4 0 0 0 4-4V5a4 4 0 1 0-8 0v6a4 4 0 0 0 4 4m7-4a1 1 0 1 0-2 0a5 5 0 0 1-10 0a1 1 0 0 0-2 0a7 7 0 0 0 6 6.92V21H8a1 1 0 1 0 0 2h8a1 1 0 1 0 0-2h-3v-3.08A7 7 0 0 0 19 11"/></symbol>
  <symbol id="play" viewBox="0 0 24 24"><path fill="currentColor" d="M8 5.14v14l11-7z"/></symbol>
  <symbol id="settings" viewBox="0 0 24 24"><path fill="currentColor" d="m19.14 12.94l1.43-1.1a1 1 0 0 0 .24-1.3l-1.5-2.6a1 1 0 0 0-1.25-.45l-1.69.68a7.5 7.5 0 0 0-1.5-.87l-.25-1.81A1 1 0 0 0 13.64 4h-3.2a1 1 0 0 0-.98.84l-.25 1.8a7.2 7.2 0 0 0-1.52.88L6 6.84a1 1 0 0 0-1.24.44l-1.5 2.6a1 1 0 0 0 .24 1.3l1.43 1.1a7.4 7.4 0 0 0 0 1.73l-1.43 1.1a1 1 0 0 0-.24 1.3l1.5 2.6a1 1 0 0 0 1.25.45l1.7-.68a7.5 7.5 0 0 0 1.49.87l.25 1.81a1 1 0 0 0 .98.84h3.2a1 1 0 0 0 .98-.84l.25-1.8a7.2 7.2 0 0 0 1.52-.88l1.68.68a1 1 0 0 0 1.24-.44l1.5-2.6a1 1 0 0 0-.24-1.3l-1.43-1.1a7.4 7.4 0 0 0 0-1.73M12 15.5A3.5 3.5 0 1 1 12 8a3.5 3.5 0 0 1 0 7.5"/></symbol>
</svg>
